HIERARCHY
ROOT Hips
{
	OFFSET 0.00000 0.00000 0.00000
	CHANNELS 6 Xposition Yposition Zposition Zrotation Yrotation Xrotation 
	JOINT LHipJoint
	{
		OFFSET 0 0 0
		CHANNELS 3 Zrotation Yrotation Xrotation
		JOINT LeftHip
		{
			OFFSET 1.34019 -1.87553 0.90315
			CHANNELS 3 Zrotation Yrotation Xrotation
			JOINT LeftKnee
			{
				OFFSET 2.55316 -7.01474 0.00000
				CHANNELS 3 Zrotation Yrotation Xrotation
				JOINT LeftAnkle
				{
					OFFSET 2.64657 -7.27139 0.00000
					CHANNELS 3 Zrotation Yrotation Xrotation
					JOINT LeftToe
					{
						OFFSET 0.24207 -0.66507 2.14489
						CHANNELS 3 Zrotation Yrotation Xrotation
						End Site
						{
							OFFSET 0.00000 -0.00000 1.12451
						}
					}
				}
			}
		}
	}
	JOINT RHipJoint
	{
		OFFSET 0 0 0
		CHANNELS 3 Zrotation Yrotation Xrotation
		JOINT RightHip
		{
			OFFSET -1.28320 -1.87553 0.90315
			CHANNELS 3 Zrotation Yrotation Xrotation
			JOINT RightKnee
			{
				OFFSET -2.60484 -7.15674 0.00000
				CHANNELS 3 Zrotation Yrotation Xrotation
				JOINT RightAnkle
				{
					OFFSET -2.60296 -7.15159 0.00000
					CHANNELS 3 Zrotation Yrotation Xrotation
					JOINT RightToe
					{
						OFFSET -0.31082 -0.85398 2.28998
						CHANNELS 3 Zrotation Yrotation Xrotation
						End Site
						{
							OFFSET -0.00000 -0.00000 1.21611
						}
					}
				}
			}
		}
	}
	JOINT lowerback
	{
		OFFSET 0 0 0
		CHANNELS 3 Zrotation Yrotation Xrotation
		JOINT Chest
		{
			OFFSET -0.00160 2.05581 -0.15156
			CHANNELS 3 Zrotation Yrotation Xrotation
			JOINT Chest2
			{
				OFFSET 0.04594 2.06326 -0.01617
				CHANNELS 3 Zrotation Yrotation Xrotation
				JOINT lowerneck
				{
					OFFSET 0 0 0
					CHANNELS 3 Zrotation Yrotation Xrotation
					JOINT Neck
					{
						OFFSET 0.03753 1.73883 0.26751
						CHANNELS 3 Zrotation Yrotation Xrotation
						JOINT Head
						{
							OFFSET -0.09795 1.76129 -0.31794
							CHANNELS 3 Zrotation Yrotation Xrotation
							End Site
							{
								OFFSET -0.03611 1.79987 -0.13846
							}
						}
					}
				}
				JOINT LeftCollar
				{
					OFFSET 0 0 0
					CHANNELS 3 Zrotation Yrotation Xrotation
					JOINT LeftShoulder
					{
						OFFSET 3.30667 1.29205 -0.22445
CHANNELS 3 Zrotation Xrotation Yrotation
						JOINT LeftElbow
						{
OFFSET 0 -4.927850 -0.000000
CHANNELS 3 Zrotation Xrotation Yrotation
							JOINT LeftWrist
							{
OFFSET 0 -3.440520 0.000000
CHANNELS 3 Zrotation Xrotation Yrotation
								JOINT lhand
								{
									OFFSET 0 0 0
CHANNELS 3 Zrotation Xrotation Yrotation
									JOINT LFingers
									{
OFFSET 0 -0.654330 0.000000
CHANNELS 3 Zrotation Xrotation Yrotation
										End Site
										{
OFFSET 0 -0.527530 0.000000
										}
									}
								}
								JOINT LThumb
								{
OFFSET 0 0.000000 0.000000
CHANNELS 3 Zrotation Xrotation Yrotation
									End Site
									{
OFFSET 0 -0.535590 0.535590
									}
								}
							}
						}
					}
				}
				JOINT RightCollar
				{
					OFFSET 0 0 0
					CHANNELS 3 Zrotation Yrotation Xrotation
					JOINT RightShoulder
					{
						OFFSET -3.20032 1.49783 -0.27688
CHANNELS 3 Zrotation Xrotation Yrotation
						JOINT RightElbow
						{
OFFSET 0 -5.091810 -0.000000
CHANNELS 3 Zrotation Xrotation Yrotation
							JOINT RightWrist
							{
OFFSET 0 -3.498650 -0.000000
CHANNELS 3 Zrotation Xrotation Yrotation
								JOINT rhand
								{
									OFFSET 0 0 0
CHANNELS 3 Zrotation Xrotation Yrotation
									JOINT RFingers
									{
OFFSET 0 -0.666410 0.000000
CHANNELS 3 Zrotation Xrotation Yrotation
										End Site
										{
OFFSET 0 -0.537280 0.000000
										}
									}
								}
								JOINT RThumb
								{
OFFSET 0 0.000000 0.000000
CHANNELS 3 Zrotation Xrotation Yrotation
									End Site
									{
OFFSET 0 -0.545480 0.545480
									}
								}
							}
						}
					}
				}
			}
		}
	}
}
MOTION
Frames: 8
Frame Time: 0.008333333333333333
1.103762 19.600834 -0.099308 -12.252736 6.827948 1.638305 0.000000 0.000000 0.000000 -15.265807 -7.428699 -13.981058 1.340015 7.312653 20.652544 -0.169393 10.583107 -12.049463 0.819465 -5.775684 -16.135058 0.000000 0.000000 0.000000 19.384810 -8.611714 -15.256958 -16.605887 -19.721386 80.031793 0.574480 -14.189062 0.095280 -0.033642 1.183848 -3.254693 3.616927 1.469937 12.687843 5.118759 2.955167 -1.031457 2.848489 1.405403 -8.351019 4.643206 -1.377778 -22.140013 -4.309338 -2.405956 19.822283 -2.636479 -1.276275 9.827976 0.000000 0.000000 0.000000 12.512510 20.390351 -30.745368 27.765939 -38.899873 9.976359 19.585313 -15.517515 7.217698 0.000000 0.000000 0.000000 -7.125000 0.000000 0.000000 -5.266389 22.334526 -2.881915 0.000000 0.000000 0.000000 -15.822561 24.007330 29.175098 -23.306486 -34.416545 -7.313288 -17.489984 -11.408968 2.319974 0.000000 0.000000 0.000000 7.125000 0.000000 0.000000 7.337907 32.353768 2.288157
1.061442 19.491533 0.161276 -12.532689 7.196931 1.839940 0.000000 0.000000 0.000000 -14.843514 -8.259749 -14.547875 0.968152 6.255010 17.529239 -0.131931 10.425651 -12.541200 0.864785 -5.929409 -16.579738 0.000000 0.000000 0.000000 19.976943 -8.893549 -14.634240 -16.458316 -19.696494 79.594357 0.603733 -14.467441 -0.098021 -0.032573 1.164995 -3.202784 3.597163 1.392800 12.388383 5.155549 2.835514 -1.089903 2.928028 1.350897 -8.242506 4.650118 -1.401697 -21.872908 -4.234111 -2.448658 19.724731 -2.609604 -1.286117 9.744147 0.000000 0.000000 0.000000 12.491075 20.826910 -30.689035 27.839800 -38.968319 10.022758 19.380410 -15.287375 7.297416 0.000000 0.000000 0.000000 -7.125000 0.000000 0.000000 -5.415516 22.260638 -2.973342 0.000000 0.000000 0.000000 -15.155329 24.053605 28.419186 -21.946423 -32.913124 -6.558220 -17.470322 -11.056524 2.273279 0.000000 0.000000 0.000000 7.125000 0.000000 0.000000 7.349288 32.304879 2.300507
1.022320 19.361050 0.420262 -12.894513 7.396179 1.970441 0.000000 0.000000 0.000000 -14.249448 -9.081387 -15.115959 0.708128 5.377658 14.988944 -0.117672 10.443113 -12.849895 0.900786 -6.048699 -16.925817 0.000000 0.000000 0.000000 20.585304 -9.072891 -14.059672 -16.387179 -19.684097 79.383040 0.626276 -14.661672 -0.293009 -0.035459 1.215632 -3.342448 3.673215 1.352212 12.116245 5.204621 2.778973 -1.109761 2.953079 1.323141 -8.105816 4.710125 -1.399094 -21.552122 -4.184590 -2.463754 19.546615 -2.593710 -1.283131 9.622687 0.000000 0.000000 0.000000 12.466106 21.223908 -30.594823 27.911237 -39.034378 10.067783 19.114387 -15.041719 7.405992 0.000000 0.000000 0.000000 -7.125000 0.000000 0.000000 -5.608788 22.159750 -3.093439 0.000000 0.000000 0.000000 -14.503851 24.048173 27.665048 -20.672933 -31.443987 -5.878624 -17.373478 -10.770206 2.235745 0.000000 0.000000 0.000000 7.125000 0.000000 0.000000 7.423327 32.263352 2.331556
0.987316 19.206183 0.676362 -13.368588 7.391956 1.968220 0.000000 0.000000 0.000000 -13.455489 -9.807390 -15.691667 0.558617 4.785347 13.297732 -0.121816 10.568727 -12.979953 0.925340 -6.128155 -17.156744 0.000000 0.000000 0.000000 21.219408 -9.144762 -13.474204 -16.398846 -19.686179 79.417749 0.640579 -14.752349 -0.511059 -0.042996 1.336814 -3.676157 3.892011 1.340305 11.947046 5.267111 2.785991 -1.084005 2.897994 1.319961 -7.974794 4.698462 -1.401943 -21.235044 -4.039906 -2.484614 19.444026 -2.535622 -1.276155 9.531116 0.000000 0.000000 0.000000 12.435905 21.606471 -30.426931 27.992710 -39.109476 10.119125 18.798826 -14.776553 7.450631 0.000000 0.000000 0.000000 -7.125000 0.000000 0.000000 -5.838418 22.128517 -3.225523 0.000000 0.000000 0.000000 -13.871076 24.017777 26.927240 -19.531693 -30.071329 -5.295988 -17.124458 -10.555771 2.277559 0.000000 0.000000 0.000000 7.125000 0.000000 0.000000 7.626953 32.300319 2.389626
0.955257 19.030098 0.929524 -13.908018 7.209156 1.826135 0.000000 0.000000 0.000000 -12.533590 -10.416904 -16.285285 0.494099 4.506526 12.506282 -0.129407 10.648217 -12.968726 0.959166 -6.235949 -17.470642 0.000000 0.000000 0.000000 21.836844 -9.132961 -12.844663 -16.483636 -19.700901 79.669408 0.649670 -14.764494 -0.800150 -0.059264 1.565857 -4.307453 4.193758 1.349238 11.892468 5.334211 2.837446 -1.010510 2.790984 1.334909 -7.855450 4.747111 -1.366433 -20.892235 -3.925466 -2.463120 19.317399 -2.491514 -1.248949 9.427567 0.000000 0.000000 0.000000 12.393881 21.984395 -30.176879 28.075321 -39.185496 10.171315 18.496867 -14.513407 7.534802 0.000000 0.000000 0.000000 -7.125000 0.000000 0.000000 -6.057470 22.055195 -3.358063 0.000000 0.000000 0.000000 -13.253728 23.980888 26.194896 -18.507423 -28.799035 -4.792673 -16.761298 -10.327920 2.273117 0.000000 0.000000 0.000000 7.125000 0.000000 0.000000 7.917351 32.286211 2.484823
0.925780 18.833127 1.180085 -14.446326 6.869915 1.553547 0.000000 0.000000 0.000000 -11.597253 -10.836388 -17.005065 0.517306 4.608746 12.796190 -0.132699 10.578392 -12.786917 1.054803 -6.528074 -18.325268 0.000000 0.000000 0.000000 22.353155 -9.077764 -12.170984 -16.638683 -19.726786 80.128954 0.653532 -14.695879 -1.185601 -0.084721 1.873759 -5.156977 4.513690 1.375019 11.955685 5.395174 2.918892 -0.894460 2.659695 1.363618 -7.756541 4.813118 -1.306835 -20.510992 -3.827325 -2.407103 19.199839 -2.451344 -1.206190 9.321825 0.000000 0.000000 0.000000 12.339661 22.374849 -29.867785 28.170587 -39.272758 10.231538 18.252434 -14.241862 7.640613 0.000000 0.000000 0.000000 -7.125000 0.000000 0.000000 -6.233994 21.956584 -3.471085 0.000000 0.000000 0.000000 -12.662099 23.957071 25.459336 -17.605360 -27.646775 -4.365684 -16.305052 -10.005034 2.246699 0.000000 0.000000 0.000000 7.125000 0.000000 0.000000 8.279728 32.246906 2.608637
0.897615 18.619778 1.429005 -14.923487 6.404091 1.168065 0.000000 0.000000 0.000000 -10.833311 -10.726774 -18.112648 0.655145 5.173668 14.405328 -0.131268 10.254083 -12.259909 1.230779 -7.034041 -19.817009 0.000000 0.000000 0.000000 22.712780 -9.011630 -11.464786 -16.852196 -19.760641 80.761001 0.654978 -14.583334 -1.680037 -0.110026 2.137802 -5.886568 4.771011 1.413820 12.126757 5.444671 3.013938 -0.742699 2.546742 1.401327 -7.682525 4.920956 -1.218008 -20.107598 -3.793496 -2.306720 19.056418 -2.434023 -1.147503 9.203941 0.000000 0.000000 0.000000 12.262685 22.773188 -29.509673 28.272929 -39.366231 10.296331 18.089647 -13.982412 7.797934 0.000000 0.000000 0.000000 -7.125000 0.000000 0.000000 -6.350185 21.800327 -3.559249 0.000000 0.000000 0.000000 -12.106236 23.957637 24.716923 -16.816405 -26.614269 -4.005145 -15.799717 -9.576243 2.084919 0.000000 0.000000 0.000000 7.125000 0.000000 0.000000 8.666424 32.067408 2.770743
0.870599 18.401516 1.673678 -15.320508 5.854589 0.714430 0.000000 0.000000 0.000000 -10.336704 -9.987996 -19.733627 0.952821 6.206340 17.387461 -0.123103 9.657595 -11.399270 1.372608 -7.414413 -20.948983 0.000000 0.000000 0.000000 22.931836 -8.940354 -10.797997 -17.102230 -19.797350 81.499897 0.658186 -14.498892 -2.218641 -0.131456 2.336901 -6.437589 4.939985 1.462352 12.420146 5.487259 3.118727 -0.579596 2.471768 1.446522 -7.669333 5.042276 -1.106946 -19.678697 -3.805420 -2.166675 18.929577 -2.430094 -1.074225 9.088685 0.000000 0.000000 0.000000 12.156877 23.151376 -29.136541 28.381064 -39.464660 10.365011 18.034023 -13.764918 8.024250 0.000000 0.000000 0.000000 -7.125000 0.000000 0.000000 -6.387585 21.567157 -3.614364 0.000000 0.000000 0.000000 -11.604867 23.975329 23.972391 -16.139400 -25.708925 -3.706469 -15.307978 -9.039114 1.819636 0.000000 0.000000 0.000000 7.125000 0.000000 0.000000 9.029662 31.783402 2.951814
